<?xml version="1.0" encoding="UTF-8"?>
<svg xmlns="http://www.w3.org/2000/svg" viewBox="0 0 1200 675">
  <defs>
    <linearGradient id="g" x1="0" x2="1" y1="0" y2="1">
      <stop offset="0%" stop-color="#0f172a"/>
      <stop offset="100%" stop-color="#111827"/>
    </linearGradient>
    <linearGradient id="glow" x1="0" x2="0" y1="0" y2="1">
      <stop offset="0%" stop-color="#60a5fa" stop-opacity="0.25"/>
      <stop offset="100%" stop-color="#60a5fa" stop-opacity="0"/>
    </linearGradient>
    <filter id="blur" x="-50%" y="-50%" width="200%" height="200%">
      <feGaussianBlur stdDeviation="20"/>
    </filter>
  </defs>

  <rect width="1200" height="675" fill="url(#g)"/>

  <g opacity="0.5">
    <rect x="140" y="120" width="920" height="435" rx="18" ry="18" fill="#0b1220" stroke="#1f2a44" stroke-width="3"/>
    <rect x="180" y="160" width="840" height="355" rx="14" ry="14" fill="#0d1526" stroke="#26334f"/>
  </g>

  <g transform="translate(0, -20)" opacity="0.9">
    <rect x="520" y="190" width="160" height="200" rx="16" ry="16" fill="#0b1220" stroke="#3b82f6" stroke-width="8"/>
    <path d="M540 190 v-30 a40 40 0 0 1 120 0 v30" fill="none" stroke="#93c5fd" stroke-width="8"/>
    <rect x="540" y="250" width="120" height="120" rx="10" ry="10" fill="#0f1a2e" stroke="#60a5fa"/>
    <g fill="#60a5fa" opacity="0.9">
      <circle cx="560" cy="270" r="6"/>
      <circle cx="740" cy="390" r="6"/>
      <circle cx="460" cy="380" r="6"/>
      <circle cx="700" cy="250" r="6"/>
    </g>
    <path d="M560 270 L600 290 L660 250 L740 390 L460 380 Z" fill="none" stroke="#2563eb" stroke-width="2"/>
  </g>

  <g opacity="0.12" filter="url(#blur)">
    <circle cx="900" cy="150" r="140" fill="url(#glow)"/>
    <circle cx="320" cy="560" r="180" fill="url(#glow)"/>
  </g>

  <text x="600" y="520" font-size="42" text-anchor="middle" font-family="Segoe UI, Roboto, Arial, sans-serif" fill="#e5e7eb">Cybersecurity News</text>
  <text x="600" y="560" font-size="22" text-anchor="middle" font-family="Segoe UI, Roboto, Arial, sans-serif" fill="#9ca3af">Image unavailable · Showing placeholder</text>
</svg>
